inDegrees=no
num_controls=7
num_derivatives=13
num_iterations=172
num_multipliers=7
num_parameters=0
num_slacks=7
num_states=26
objective=5.547078
objective_accelerations=0.670528
objective_balance=0.036802
objective_effort=0.248073
objective_height=4.524455
objective_ligament=0.067220
solver_duration=1903.973025
status=Solve_Succeeded
success=true
DataType=double
version=3
OpenSimVersion=4.4-2022-07-23-0e9fedc
endheader
time	/jointset/ground_pelvis/pelvis_tilt/value	/jointset/ground_pelvis/pelvis_tx/value	/jointset/ground_pelvis/pelvis_ty/value	/jointset/hip_l/hip_flexion_l/value	/jointset/hip_l/hip_adduction_l/value	/jointset/hip_l/hip_rotation_l/value	/jointset/back/lumbar_extension/value	/jointset/patellofemoral_l/patellar_flexion_l/value	/jointset/knee_l/knee_flexion_l/value	/jointset/knee_l/knee_adduction_l/value	/jointset/knee_l/knee_rotation_l/value	/jointset/ankle_l/ankle_angle_l/value	/jointset/subtalar_l/subtalar_angle_l/value	/jointset/ground_pelvis/pelvis_tilt/speed	/jointset/ground_pelvis/pelvis_tx/speed	/jointset/ground_pelvis/pelvis_ty/speed	/jointset/hip_l/hip_flexion_l/speed	/jointset/hip_l/hip_adduction_l/speed	/jointset/hip_l/hip_rotation_l/speed	/jointset/back/lumbar_extension/speed	/jointset/patellofemoral_l/patellar_flexion_l/speed	/jointset/knee_l/knee_flexion_l/speed	/jointset/knee_l/knee_adduction_l/speed	/jointset/knee_l/knee_rotation_l/speed	/jointset/ankle_l/ankle_angle_l/speed	/jointset/subtalar_l/subtalar_angle_l/speed	/forceset/tau_hip_flexion_l	/forceset/tau_hip_adduction_l	/forceset/tau_hip_rotation_l	/forceset/tau_knee_flexion_l	/forceset/tau_ankle_angle_l	/forceset/tau_subtalar_angle_l	/forceset/tau_lumbar_extension	lambda_cid13_p0	lambda_cid13_p1	lambda_cid13_p2	lambda_cid13_p3	lambda_cid13_p4	lambda_cid13_p5	lambda_cid14_p0	/jointset/ground_pelvis/pelvis_tilt/accel	/jointset/ground_pelvis/pelvis_tx/accel	/jointset/ground_pelvis/pelvis_ty/accel	/jointset/hip_l/hip_flexion_l/accel	/jointset/hip_l/hip_adduction_l/accel	/jointset/hip_l/hip_rotation_l/accel	/jointset/back/lumbar_extension/accel	/jointset/patellofemoral_l/patellar_flexion_l/accel	/jointset/knee_l/knee_flexion_l/accel	/jointset/knee_l/knee_adduction_l/accel	/jointset/knee_l/knee_rotation_l/accel	/jointset/ankle_l/ankle_angle_l/accel	/jointset/subtalar_l/subtalar_angle_l/accel	gamma_cid13_p0	gamma_cid13_p1	gamma_cid13_p2	gamma_cid13_p3	gamma_cid13_p4	gamma_cid13_p5	gamma_cid14_p0
1	-0.3781156843500625	0.01208114630037298	0.5989227866685668	1.539340006293937	-0.4918777189799634	0.01312040172271367	-0.2617988602440727	1.46690722402175	1.46690722402171	-0.05975357552600672	-0.1745325330008011	0.4362436424300841	0.1039523304967152	-0.01619016055402608	0.009679700818391467	0.0008769312440848332	-0.001494023358564618	-0.003515517449746218	0.001958694693525228	-1.831815721929343e-06	0.0002425878801927815	0.000242587880192547	-0.005267461273387336	-1.430291169291782e-06	0.01717897524010637	0.008436290448455458	-0.2419073064380713	0.04943859273397375	0.001995361005144594	-0.3576044697807381	-0.07347435299889725	0.02008089529175361	0.2259573958855237	-62.82362974164067	2.779872653760624	-1.351416765081336	16.04790950865818	-634.8862062103568	-61.26974467505005	-0.2494903468834895	1.040629042885211	-0.009768685931565194	1.847533820663086	-5.660214333091778	0.1950434469458027	-2.337209121218226	-0.01492179662321067	-5.559391138013901	-5.559391138013804	-0.6708000042851141	-0.02885764405611529	-1.675164143074648	-1.028741599902954	3.22626980526471e-09	2.081220026630046e-08	-1.397366973772587e-08	3.862849423214226e-09	-9.293764290583309e-10	3.584062802700417e-08	9.289313691029422e-10
1.01	-0.3782262503132145	0.01217744105711316	0.5990237837114281	1.539043141231327	-0.491902349572612	0.01302203715885567	-0.2617988575480549	1.46663196845011	1.466631968450111	-0.0598372779216229	-0.1745325314555224	0.4363319267769381	0.1039867866788635	-0.005923741677891275	0.009581655421884048	0.01931849027014795	-0.05787000582997463	-0.001408226026344345	-0.02162713172958295	2.278128511631368e-06	-0.05528919338121811	-0.05528919338121696	-0.01147196777878939	2.548597586941134e-06	0.0004755013959564902	-0.00154294414274058	-0.2418168331877571	0.04947113114729412	0.001980534105624976	-0.3574196952871695	-0.07351052768228018	0.02010455477812574	0.2258847871667592	-62.81955123732921	2.761110111457361	-1.339546685078495	15.95822462611863	-634.7157174653792	-61.27339645930921	-0.2516756581684895	1.019540897112589	-0.009461096740504086	1.841866790112779	-5.624943884576859	0.2189256074453527	-2.368604241730363	0.008063456724247459	-5.549393185672061	-5.549393185671906	-0.5951227288762784	0.01515545370853033	-1.668298129372795	-0.9822025063239713	-4.82364967554246e-09	5.146515224948843e-09	3.204641958321496e-08	3.186240354405448e-09	-1.037835286814605e-08	5.937042397310195e-08	-1.043762105465734e-08
1.02	-0.3782341735701775	0.01227282763384234	0.599309076313857	1.538182785607921	-0.4919058365275448	0.01268794736299052	-0.2617988165392656	1.465801530752763	1.465801530752802	-0.0599829947333322	-0.1745324641616757	0.4362531045605235	0.1039215128915807	0.004338380683640764	0.009498064816192503	0.03773604315760069	-0.1141921355178346	0.0007132100933774794	-0.04518635170762238	5.830743846684313e-06	-0.1107938372613245	-0.1107938372613224	-0.0176703444925334	1.1719421024408e-05	-0.01624233741969873	-0.01150970343777851	-0.241726359937443	0.04950366956061192	0.001965707206159838	-0.3572349207936005	-0.07354670236566498	0.02012821426449102	0.225812178447995	-62.8238408683332	2.743859748340076	-1.327971460392755	15.90867160070022	-634.6708223288892	-61.25925913152885	-0.2581171430423094	1.039769739964632	-0.006877727768371231	1.842732592941008	-5.649443776381764	0.1978723862097581	-2.331887832204506	-0.0150332624029129	-5.553963661752988	-5.553963661752989	-0.6695740459535204	-0.02781925711993858	-1.67803713737569	-1.026246540671367	-1.318175725282225e-08	-1.12455571981076e-08	7.817568464367183e-08	2.582007589318543e-09	-1.991838429188668e-08	8.203049449903835e-08	-2.190618926156111e-08
1.03	-0.3781394456652925	0.01236747910196271	0.5997783523995829	1.536759571892888	-0.4918880420676396	0.01211845127760698	-0.2617987635025651	1.464416276608892	1.464416276608828	-0.06019065347779531	-0.1745323558239656	0.4360070023558894	0.103756640561849	0.01461134541071389	0.009437455734386643	0.05610799932623754	-0.1704320027674774	0.002848512631069614	-0.06870270353691327	2.913897492948789e-06	-0.1662430786536378	-0.1662430786536356	-0.02385838589848609	5.022726765135693e-06	-0.03298317349333452	-0.02146043686437593	-0.2414207190383596	0.04949226479250621	0.001917050434878424	-0.3567987267174537	-0.07344927956526555	0.02021575048783624	0.2255839012709355	-62.75800314519517	2.669484297030667	-1.287751207999838	15.7731097184295	-634.2908349937391	-61.29565822642446	-0.2690122023580604	1.021679291331851	-0.004868067350967715	1.832744979955407	-5.608470339406366	0.2217692186348591	-2.360006176809558	0.006799698418222786	-5.538310704475381	-5.538310704475347	-0.5929818072630528	0.01219361215114903	-1.672870104501393	-0.9788481427045358	-2.154300960659666e-08	-2.764504173730389e-08	1.24306063742287e-07	1.978513357943086e-09	-2.945934484812377e-08	1.046816902757894e-07	-3.33757984458439e-08
1.04	-0.3779418642226865	0.01246168136547232	0.600431011617221	1.534774517077329	-0.4918488125761401	0.01131409221022399	-0.2617987955154192	1.462476948785798	1.462476948785628	-0.06046010516018884	-0.1745324567555883	0.4355933391380904	0.1034923886180413	0.02490908822791497	0.009408223894037414	0.07441266954007893	-0.2265603556231525	0.005000216412201662	-0.09215894810693162	-1.11791820699892e-05	-0.2216085731061478	-0.2216085731061455	-0.0300289320783156	-3.01344582897679e-05	-0.04975454005272594	-0.03138562625299707	-0.2411150781392783	0.04948086002439402	0.001868393663603987	-0.3563625326413083	-0.07335185676486956	0.02030328671116764	0.2253556240938741	-62.70056481830715	2.596590833720712	-1.247780288139654	15.67750268454709	-634.0362694597384	-61.31470521395116	-0.2846544653114402	1.044725357990197	-0.000602279477039431	1.82927540198192	-5.627140897588207	0.2011526348978009	-2.31986638034994	-0.01726850904471486	-5.53721427379236	-5.537214273792326	-0.6660750007288578	-0.03351135527891286	-1.684143234526791	-1.02113773307599	-2.811211823159213e-08	-3.804452131393652e-08	1.687198452723728e-07	2.559724038251905e-09	-3.824113812982811e-08	1.289210727779663e-07	-4.344458496446862e-08
1.05	-0.3776412215961125	0.01255576754426365	0.6012663024150516	1.532228945470131	-0.4917878827211435	0.0102756373386177	-0.2617989687419219	1.4599844791794	1.459984479179237	-0.06079110726218606	-0.1745328793860066	0.4350117920646706	0.1031292035268574	0.03521878005524483	0.009416097084701456	0.09262640633425477	-0.28251367780194	0.007200130057883152	-0.1155047384620334	-1.892829717428274e-05	-0.276861980404491	-0.2768619804044896	-0.03616000464049529	-3.828384601819184e-05	-0.06656118595072426	-0.04122517937592657	-0.24057259302098	0.04943780342217461	0.001787515743299131	-0.3556995367234147	-0.07308874702077146	0.02044695228478293	0.2249547498662051	-62.56324779855171	2.469704854328375	-1.181348865230384	15.49230503356277	-633.4441342646041	-61.37947664223851	-0.3054872136665859	1.02398903684711	0.002545543371555323	1.814550776045634	-5.57338902987871	0.231540669323143	-2.337877247935751	0.00815255897183019	-5.515887997252872	-5.515887997253045	-0.5849252760194026	0.01799540938760348	-1.679876189406188	-0.9614497298768611	-3.462522236506328e-08	-4.825650073548906e-08	2.130799831284419e-07	3.177956747050851e-09	-4.699920743420331e-08	1.532100861153126e-07	-5.346959577479153e-08
1.06	-0.3772375024629163	0.01265014513996842	0.602283156172406	1.529125048410776	-0.4917045277417055	0.009004536186494541	-0.2617990833251236	1.456940178692139	1.45694017869198	-0.06118308046821419	-0.1745328910823402	0.4342619883478768	0.1026684057788493	0.04552438955228224	0.009466507276722824	0.1107252614448315	-0.3382254460549153	0.009485241300354394	-0.1386882042109542	5.494563235930828e-07	-0.3319747492787377	-0.3319747492787385	-0.04222315288495031	5.205236254833603e-05	-0.08340586872751604	-0.0509081576178742	-0.2400301079026606	0.04939474681996979	0.001706637823016054	-0.3550365408055209	-0.07282563727667279	0.02059061785842312	0.2245538756385542	-62.43440424129876	2.344311582065425	-1.115165900572672	15.34681119501925	-632.9769257059377	-61.42766119773589	-0.3320441816391351	1.043908891931658	0.007905120794471554	1.806299065262092	-5.578830112425764	0.2181921542556533	-2.287401459113808	-0.01182313532422578	-5.50908658897304	-5.509086588973258	-0.6524901371839655	-0.01381423602012683	-1.691750610285417	-0.9898227568797252	-4.015501435858936e-08	-5.483074069443694e-08	2.562641824305094e-07	4.927826223211793e-09	-5.5840560845882e-08	1.755347785241142e-07	-6.220209848565911e-08
1.07	-0.3767307092782295	0.01274523108643922	0.6034803760565765	1.52546534786164	-0.4915977152552366	0.007502637156178204	-0.2617989585316842	1.453345463881475	1.453345463881392	-0.06163526080492844	-0.1745311636366776	0.4333434855322492	0.1021118427691857	0.05583641998304309	0.009556816576737851	0.1286947781572871	-0.3936627865131764	0.01191111288349627	-0.161641143763239	2.083906927209017e-05	-0.3869439412769972	-0.3869439412769869	-0.0481911916031223	0.0003482918629167049	-0.1003066951284695	-0.06034729240962911	-0.2392855021203207	0.04935474072710875	0.001593722460015526	-0.3541314666997657	-0.07251677088902445	0.02079713715949574	0.2239942902337957	-62.26860035202486	2.169533376577861	-1.023272257803559	15.17366804738107	-632.2215956681315	-61.53446609849257	-0.3650125602914943	1.025171483953881	0.01051539174541773	1.788674327085723	-5.518410138347371	0.2598249570213641	-2.291718410410794	0.008419487065802696	-5.487180472996551	-5.487180472994782	-0.5657340270560274	0.05963560405371976	-1.69105375763389	-0.9124118127445475	-4.56325025148843e-08	-6.121148387345901e-08	2.993858318094917e-07	6.73788914444519e-09	-6.468634426326831e-08	1.977549857771422e-07	-7.08658507657046e-08
1.08	-0.3761207315161706	0.0128414044373383	0.604856570378441	1.521252829082753	-0.4914656359936013	0.005772713088903555	-0.2617987379467439	1.44920178815728	1.449201788157274	-0.06214647618641543	-0.1745248152837799	0.4322556134320863	0.1014625978171203	0.06616130502602169	0.00968398816237798	0.1465201489836811	-0.448789092004285	0.01453859633376202	-0.1842932116005235	1.970778067296079e-05	-0.4417669319850217	-0.4417669319849993	-0.05403016183818388	0.000976233802820094	-0.1172797256347641	-0.06944454609823081	-0.2385408963380281	0.04931473463420833	0.001480807096986549	-0.353226392594012	-0.0722079045013819	0.02100365646049773	0.2234347048289982	-62.11141369997502	1.996415295502043	-0.9318161050937595	15.04006131394456	-631.590761057794	-61.6255748439502	-0.4051665344024963	1.046479814375176	0.01527757791951721	1.777469888049759	-5.516623118995279	0.2585145276804036	-2.227227116113767	-0.01610731563375347	-5.47984633092604	-5.479846330926041	-0.6266764405618954	0.05252625188684416	-1.706191431353587	-0.9214465362490815	-5.302602635971805e-08	-7.40394914836952e-08	3.426490101733988e-07	7.42222559586348e-09	-7.337738491463282e-08	2.160459364232686e-07	-8.068935870960715e-08
